<svg width="24" height="24" viewBox="0 0 24 24" fill="none" xmlns="http://www.w3.org/2000/svg">
<path d="M19 17.42L13.39 11.89L18.82 6.37999C18.9556 6.1859 19.018 5.94997 18.996 5.7142C18.974 5.47843 18.869 5.25812 18.6998 5.09249C18.5305 4.92685 18.308 4.82665 18.0718 4.80972C17.8357 4.79278 17.6011 4.86021 17.41 4.99999L12 10.49L6.37998 4.99999C6.29794 4.87624 6.18938 4.77232 6.06216 4.69576C5.93495 4.61919 5.79229 4.57192 5.64453 4.55737C5.49677 4.54281 5.34763 4.56134 5.20792 4.61162C5.06822 4.66189 4.94146 4.74264 4.83685 4.848C4.73225 4.95337 4.65242 5.0807 4.60315 5.22077C4.55389 5.36083 4.53644 5.51011 4.55206 5.65776C4.56768 5.80541 4.61598 5.94772 4.69346 6.07438C4.77094 6.20104 4.87565 6.30885 4.99998 6.38999L10.6 11.91L4.99998 17.62C4.82269 17.806 4.72379 18.0531 4.72379 18.31C4.72379 18.5669 4.82269 18.814 4.99998 19C5.18785 19.1811 5.43906 19.2816 5.69998 19.28C5.83229 19.2794 5.96317 19.2526 6.08505 19.2011C6.20692 19.1497 6.31737 19.0745 6.40998 18.98L12 13.32L17.61 18.84C17.7029 18.9337 17.8135 19.0081 17.9354 19.0589C18.0573 19.1097 18.188 19.1358 18.32 19.1358C18.452 19.1358 18.5827 19.1097 18.7046 19.0589C18.8264 19.0081 18.937 18.9337 19.03 18.84C19.1218 18.7451 19.1939 18.6329 19.2421 18.51C19.2903 18.387 19.3137 18.2558 19.3109 18.1237C19.3081 17.9917 19.2792 17.8616 19.2258 17.7408C19.1725 17.62 19.0957 17.511 19 17.42Z" fill="black"/>
</svg>
