<?xml version="1.0" encoding="UTF-8"?>
<svg width="684px" height="150px" viewBox="0 0 684 150" version="1.1" xmlns="http://www.w3.org/2000/svg" xmlns:xlink="http://www.w3.org/1999/xlink">
    <!-- Generator: Sketch 55.2 (78181) - https://sketchapp.com -->
    <title>Atom/Logos/Global/Purplebricks/Horizontal/Plum - V1.0.0</title>
    <desc>Created with Sketch.</desc>
    <g id="Atom/Logos/Global/Purplebricks/Horizontal/Plum---V1.0.0" stroke="none" stroke-width="1" fill="none" fill-rule="evenodd">
        <path d="M51.0274412,101.315276 C49.5910464,101.315276 48.9070488,100.633488 48.9070488,99.269912 L48.9070488,50.3175261 C48.8112237,49.7328645 49.0035434,49.1379635 49.4237998,48.7190647 C49.8440561,48.3001659 50.4408849,48.1084674 51.0274412,48.203983 L65.5281893,48.203983 C79.2081404,48.203983 85.5693176,52.9083209 85.5693176,67.3622287 C85.5693176,81.8161365 79.2765401,86.5204745 65.5281893,86.5204745 L61.0138055,86.5204745 L61.0138055,99.269912 C61.0138055,100.633488 60.3298079,101.315276 58.8934131,101.315276 L51.0274412,101.315276 Z M65.4597896,75.9527588 C71.2737688,75.9527588 73.2573617,73.9755733 73.2573617,67.3622287 C73.2573617,60.7488841 71.2737688,58.7716986 65.4597896,58.7716986 L61.0138055,58.7716986 L61.0138055,75.9527588 L65.4597896,75.9527588 Z M101.096062,83.9296797 L101.096062,50.3175261 C101.000237,49.7328645 101.192557,49.1379635 101.612813,48.7190647 C102.033069,48.3001659 102.629898,48.1084674 103.216454,48.203983 L111.150826,48.203983 C111.737382,48.1084674 112.334211,48.3001659 112.754468,48.7190647 C113.174724,49.1379635 113.367044,49.7328645 113.271218,50.3175261 L113.271218,82.5661035 C113.271218,88.5658388 115.049612,91.1566336 120.111194,91.1566336 C125.172776,91.1566336 126.540771,88.5658388 126.540771,82.7024611 L126.540771,50.3175261 C126.444946,49.7328645 126.637266,49.1379635 127.057522,48.7190647 C127.477778,48.3001659 128.074607,48.1084674 128.661163,48.203983 L136.595535,48.203983 C137.182091,48.1084674 137.77892,48.3001659 138.199177,48.7190647 C138.619433,49.1379635 138.811753,49.7328645 138.715927,50.3175261 L138.715927,83.9296797 C138.715927,96.4745808 132.696749,102.065243 120.111194,102.065243 C107.525639,102.065243 101.096062,96.4745808 101.096062,83.9296797 L101.096062,83.9296797 Z M172.368607,48.203983 C186.048558,48.203983 192.409735,52.9083209 192.409735,66.6122618 C193.41037,73.629764 189.3234,80.3813937 182.62857,82.7706399 L191.862537,98.7244815 C192.683334,100.156237 192.204536,101.315276 190.562942,101.315276 L182.354971,101.315276 C181.101298,101.472451 179.896997,100.774538 179.413782,99.6108061 L171.000612,84.543289 L167.101826,84.543289 L167.101826,99.269912 C167.101826,100.633488 166.417828,101.315276 164.981433,101.315276 L157.320661,101.315276 C155.884266,101.315276 155.200268,100.633488 155.200268,99.269912 L155.200268,50.3175261 C155.104443,49.7328645 155.296763,49.1379635 155.717019,48.7190647 C156.137276,48.3001659 156.734105,48.1084674 157.320661,48.203983 L172.368607,48.203983 Z M172.368607,74.452825 C178.319386,74.452825 180.166179,72.2711031 180.166179,66.6122618 C180.166179,60.9534205 178.250986,58.7716986 172.300207,58.7716986 L167.375425,58.7716986 L167.375425,74.452825 L172.368607,74.452825 Z M210.125272,101.315276 C208.688877,101.315276 208.004879,100.633488 208.004879,99.269912 L208.004879,50.3175261 C207.909054,49.7328645 208.101374,49.1379635 208.52163,48.7190647 C208.941887,48.3001659 209.538716,48.1084674 210.125272,48.203983 L224.62602,48.203983 C238.305971,48.203983 244.667148,52.9083209 244.667148,67.3622287 C244.667148,81.8161365 238.374371,86.5204745 224.62602,86.5204745 L220.111636,86.5204745 L220.111636,99.269912 C220.111636,100.633488 219.427639,101.315276 217.991244,101.315276 L210.125272,101.315276 Z M224.55762,75.9527588 C230.371599,75.9527588 232.355192,73.9755733 232.355192,67.3622287 C232.355192,60.7488841 230.371599,58.7716986 224.55762,58.7716986 L220.111636,58.7716986 L220.111636,75.9527588 L224.55762,75.9527588 Z M272.437449,90.3384879 L287.280196,90.3384879 C287.866752,90.2429723 288.463581,90.4346708 288.883837,90.8535696 C289.304094,91.2724684 289.496413,91.8673694 289.400588,92.452031 L289.400588,99.269912 C289.400588,100.633488 288.716591,101.315276 287.280196,101.315276 L262.519484,101.315276 C261.08309,101.315276 260.399092,100.633488 260.399092,99.269912 L260.399092,50.3175261 C260.303267,49.7328645 260.495587,49.1379635 260.915843,48.7190647 C261.336099,48.3001659 261.932928,48.1084674 262.519484,48.203983 L270.385456,48.203983 C270.972013,48.1084674 271.568841,48.3001659 271.989098,48.7190647 C272.409354,49.1379635 272.601674,49.7328645 272.505849,50.3175261 L272.437449,90.3384879 Z M316.76049,79.3616994 L316.76049,90.7475607 L333.450031,90.7475607 C334.036587,90.6520452 334.633416,90.8437436 335.053672,91.2626424 C335.473928,91.6815413 335.666248,92.2764422 335.570423,92.8611038 L335.570423,99.269912 C335.570423,100.633488 334.886425,101.315276 333.450031,101.315276 L306.910926,101.315276 C305.474531,101.315276 304.790533,100.633488 304.790533,99.269912 L304.790533,50.3175261 C304.694708,49.7328645 304.887028,49.1379635 305.307284,48.7190647 C305.72754,48.3001659 306.324369,48.1084674 306.910926,48.203983 L333.176432,48.203983 C333.762988,48.1084674 334.359817,48.3001659 334.780073,48.7190647 C335.200329,49.1379635 335.392649,49.7328645 335.296824,50.3175261 L335.296824,56.6581555 C335.392649,57.2428171 335.200329,57.8377181 334.780073,58.2566169 C334.359817,58.6755157 333.762988,58.8672141 333.176432,58.7716986 L316.82889,58.7716986 L316.82889,69.2030566 L332.355635,69.2030566 C333.72363,69.2030566 334.407627,69.8848447 334.407627,71.3165997 L334.407627,77.316335 C334.474482,77.8765909 334.279887,78.4364651 333.879641,78.8354183 C333.479395,79.2343716 332.917706,79.428338 332.355635,79.3616994 L316.76049,79.3616994 Z M370.796297,101.315276 C369.359902,101.315276 368.675905,100.633488 368.675905,99.269912 L368.675905,50.3175261 C368.580079,49.7328645 368.772399,49.1379635 369.192655,48.7190647 C369.612912,48.3001659 370.209741,48.1084674 370.796297,48.203983 L387.280638,48.203983 C399.182195,48.203983 405.474973,51.4765659 405.474973,61.8397451 C406.009019,66.5680483 403.367607,71.0855152 398.976996,72.9528912 C404.272834,74.8484188 407.560357,80.1310128 406.911368,85.7023287 C406.911368,96.9518325 400.071392,101.247098 388.169835,101.247098 L370.796297,101.315276 Z M386.870239,69.407593 C391.658222,69.407593 393.710215,67.7031228 393.710215,63.6123941 C393.710215,59.5216655 391.931821,58.0899105 386.870239,58.0899105 L380.577462,58.0899105 L380.577462,69.407593 L386.870239,69.407593 Z M387.349038,91.4293488 C392.889418,91.4293488 394.873011,89.7248786 394.873011,85.0887194 C394.873011,80.4525603 392.889418,78.7480901 387.554237,78.7480901 L380.714261,78.7480901 L380.714261,91.4293488 L387.349038,91.4293488 Z M439.67485,48.203983 C453.354802,48.203983 459.647579,52.9083209 459.647579,66.6122618 C460.629723,73.6058599 456.584791,80.3351027 449.934814,82.7706399 L459.168781,98.7244815 C459.989578,100.156237 459.168781,101.315276 457.869185,101.315276 L449.661215,101.315276 C448.407542,101.472451 447.203241,100.774538 446.720025,99.6108061 L438.580454,84.543289 L434.681668,84.543289 L434.681668,99.269912 C434.681668,100.633488 433.997671,101.315276 432.561276,101.315276 L424.695304,101.315276 C423.258909,101.315276 422.574912,100.633488 422.574912,99.269912 L422.574912,50.3175261 C422.479087,49.7328645 422.671406,49.1379635 423.091663,48.7190647 C423.511919,48.3001659 424.108748,48.1084674 424.695304,48.203983 L439.67485,48.203983 Z M439.67485,74.452825 C445.694029,74.452825 447.472423,72.2711031 447.472423,66.6122618 C447.472423,60.9534205 445.625629,58.7716986 439.606451,58.7716986 L434.750068,58.7716986 L434.750068,74.452825 L439.67485,74.452825 Z M475.721521,50.3175261 C475.721521,48.8857711 476.405519,48.203983 477.773514,48.203983 L485.639486,48.203983 C486.226042,48.1084674 486.822871,48.3001659 487.243127,48.7190647 C487.663384,49.1379635 487.855703,49.7328645 487.759878,50.3175261 L487.759878,99.269912 C487.759878,100.633488 487.075881,101.315276 485.639486,101.315276 L477.705114,101.315276 C477.143043,101.381915 476.581354,101.187949 476.181108,100.788995 C475.780862,100.390042 475.586267,99.8301679 475.653122,99.269912 L475.721521,50.3175261 Z M534.613711,90.1339514 C536.186905,89.5885209 536.870903,90.1339514 537.212901,91.5657064 L538.649296,97.2245477 C539.059695,98.6563027 538.649296,99.269912 537.076102,99.8153425 C533.558897,101.335612 529.760424,102.102144 525.926942,102.065243 C511.631393,102.065243 504.03902,95.2473622 504.03902,74.7937191 C504.03902,54.3400759 511.426194,47.5221949 525.584943,47.5221949 C529.354178,47.5352224 533.080056,48.324414 536.528904,49.8402744 C537.896899,50.3857049 538.580897,50.9311354 538.238898,52.4310692 L536.802503,58.0899105 C536.802503,59.4534867 535.708107,59.9989172 534.134912,59.4534867 C532.055335,58.7929799 529.887866,58.4482243 527.705335,58.4308045 C519.497365,58.4308045 516.487776,62.3169967 516.487776,74.8618979 C516.487776,87.406799 519.839364,91.36117 527.978934,91.36117 C530.221196,91.3211834 532.440822,90.9063479 534.545311,90.1339514 L534.613711,90.1339514 Z M577.979156,50.0448108 C578.550797,48.9437593 579.677069,48.2388494 580.920345,48.203983 L589.607114,48.203983 C591.180308,48.203983 591.659107,49.4993804 590.83831,50.7947778 L575.927163,72.4756395 L591.385508,98.7244815 C592.137905,100.088058 591.727506,101.315276 590.154312,101.315276 L581.399143,101.315276 C580.150889,101.288983 579.030801,100.54467 578.526354,99.4062696 L566.351197,78.5435536 L566.351197,98.9971968 C566.351197,100.360773 565.6672,101.042561 564.230805,101.042561 L556.091234,101.042561 C555.529162,101.1092 554.967474,100.915233 554.567228,100.51628 C554.166982,100.117327 553.972387,99.5574526 554.039241,98.9971968 L554.039241,50.3175261 C554.039241,48.8857711 554.723239,48.203983 556.091234,48.203983 L564.025605,48.203983 C564.612162,48.1084674 565.208991,48.3001659 565.629247,48.7190647 C566.049503,49.1379635 566.241823,49.7328645 566.145998,50.3175261 L566.145998,67.2940499 L577.979156,50.0448108 Z M619.497807,102.26978 C614.843619,102.363876 610.210243,101.624931 605.817856,100.088058 C604.381461,99.5426273 603.765863,98.9971968 604.039462,97.497263 L605.270658,91.7020641 C605.270658,90.3384879 606.296654,89.6566997 608.006648,90.270309 C610.857592,91.3007649 613.866033,91.8313082 616.898616,91.8384217 C621.754999,91.8384217 624.969787,90.4748455 624.969787,86.8613685 C624.969787,83.2478916 622.438996,81.8161365 617.445814,79.0208053 C609.95635,76.7718145 604.820389,69.9090898 604.79186,62.1124603 C604.79186,52.0219963 610.40064,47.7267313 622.438996,47.7267313 C626.368702,47.6869315 630.276904,48.3093019 633.998555,49.5675592 C635.36655,50.1129897 635.982148,50.6584201 635.640149,52.158354 L634.477353,57.9535529 C634.477353,59.3171291 633.382957,59.7262019 631.809763,59.3171291 C629.233723,58.5566662 626.56202,58.1663883 623.875391,58.1580893 C619.361007,58.1580893 617.035416,59.3853079 617.035416,62.589712 C617.035416,65.7941161 620.250204,68.1121956 624.490989,70.3620964 C631.946562,74.452825 637.486943,77.7935867 637.486943,87.1340838 C637.623742,97.7017994 629.620971,102.26978 619.497807,102.26978 Z M260.467492,0.00156393281 L2.05321649,0.00156393281 C1.50330066,-0.0176870303 0.970071484,0.191617789 0.580982535,0.579449903 C0.191893586,0.967282018 -0.0180895198,1.49878876 0,2.04692825 L0,147.949583 C-0.0180895198,148.497722 0.191893586,149.029229 0.580982535,149.417061 C0.970071484,149.804893 1.50330066,150.014198 2.05321649,149.996167 L111.492825,149.996167 C112.034077,149.987263 112.550359,149.766714 112.92922,149.381338 L122.710385,139.631768 C123.028441,139.339168 123.128078,138.879091 122.959436,138.481769 C122.790793,138.084447 122.390146,137.835345 121.957987,137.859119 L12.518379,137.859119 L12.518379,12.1373922 L250.002329,12.1373922 C250.545193,12.1373922 251.064335,11.9156212 251.438724,11.5237829 L261.219889,1.77421301 C261.537946,1.48161352 261.637583,1.02153653 261.46894,0.624214225 C261.300297,0.226891919 260.899651,-0.0222101489 260.467492,0.00156393281 Z M423.464108,149.994947 L681.946784,149.994947 C682.496699,150.014198 683.029929,149.804893 683.419017,149.417061 C683.808106,149.029229 684.01809,148.497722 684,147.949583 L684,2.04692825 C684.01809,1.49878876 683.808106,0.967282018 683.419017,0.579449903 C683.029929,0.191617789 682.496699,-0.0176870303 681.946784,0.000344056746 L572.507175,0.000344056746 C571.965923,0.00924846443 571.449641,0.229797416 571.07078,0.615173227 L561.563214,10.3647431 C561.245158,10.6573426 561.145521,11.1174196 561.314163,11.5147419 C561.482806,11.9120642 561.883453,12.1611663 562.315612,12.1373922 L671.75522,12.1373922 L671.75522,137.859119 L433.997671,137.859119 C433.454807,137.859119 432.935665,138.08089 432.561276,138.472728 L422.780111,148.290477 C422.441816,148.551315 422.318068,149.004138 422.476909,149.399959 C422.635751,149.795779 423.038665,150.038617 423.464108,149.994947 Z" id="Purplebricks_logo-Hrz-RGB-Plum" fill="#400F4C" fill-rule="nonzero"></path>
    </g>
</svg>