<svg width="24" height="24" viewBox="0 0 24 24" fill="none" xmlns="http://www.w3.org/2000/svg">
<path d="M17 14C16.5077 14.0004 16.023 14.1219 15.5888 14.3538C15.1545 14.5858 14.7841 14.921 14.51 15.33L10 12.87C10 12.74 10 12.61 10 12.48C9.99756 12.2583 9.97413 12.0373 9.93 11.82L14.86 9.14L14.76 9C15.2265 9.52364 15.8617 9.86729 16.5553 9.97125C17.2488 10.0752 17.9569 9.93291 18.5564 9.56908C19.156 9.20524 19.6091 8.64285 19.8371 7.97964C20.065 7.31643 20.0535 6.59431 19.8043 5.93875C19.5552 5.28318 19.0843 4.73561 18.4734 4.39117C17.8625 4.04673 17.1503 3.92719 16.4604 4.05332C15.7706 4.17945 15.1467 4.54329 14.6972 5.0816C14.2477 5.61992 14.001 6.2987 14 7C14.0065 7.28523 14.0536 7.56808 14.14 7.84L9.33 10.44C8.89177 9.82923 8.26854 9.37579 7.55255 9.14678C6.83657 8.91777 6.06588 8.92536 5.35454 9.16843C4.64321 9.4115 4.02903 9.87714 3.60292 10.4964C3.1768 11.1157 2.96139 11.8557 2.98857 12.6069C3.01574 13.3582 3.28406 14.0807 3.75381 14.6676C4.22356 15.2544 4.86977 15.6745 5.59681 15.8655C6.32385 16.0565 7.09308 16.0084 7.79064 15.7283C8.48821 15.4481 9.07705 14.9508 9.47 14.31L14 16.75C14 16.83 14 16.9 14 16.98C14 17.5733 14.1759 18.1534 14.5056 18.6467C14.8352 19.1401 15.3038 19.5246 15.8519 19.7516C16.4001 19.9787 17.0033 20.0381 17.5853 19.9224C18.1672 19.8066 18.7018 19.5209 19.1213 19.1013C19.5409 18.6818 19.8266 18.1472 19.9424 17.5653C20.0581 16.9833 19.9987 16.3801 19.7716 15.8319C19.5446 15.2838 19.1601 14.8152 18.6667 14.4856C18.1734 14.1559 17.5933 13.98 17 13.98V14ZM17 5.5C17.2967 5.5 17.5867 5.58797 17.8334 5.75279C18.08 5.91762 18.2723 6.15188 18.3858 6.42597C18.4993 6.70006 18.5291 7.00166 18.4712 7.29263C18.4133 7.58361 18.2704 7.85088 18.0607 8.06066C17.8509 8.27044 17.5836 8.4133 17.2926 8.47118C17.0017 8.52906 16.7001 8.49935 16.426 8.38582C16.1519 8.27229 15.9176 8.08003 15.7528 7.83335C15.588 7.58668 15.5 7.29667 15.5 7C15.4974 6.80134 15.5342 6.60413 15.6084 6.41983C15.6826 6.23553 15.7927 6.0678 15.9322 5.92639C16.0718 5.78497 16.238 5.67269 16.4213 5.59606C16.6046 5.51943 16.8013 5.47998 17 5.48V5.5ZM6.5 14.5C6.10444 14.5 5.71776 14.3827 5.38886 14.1629C5.05996 13.9432 4.80362 13.6308 4.65224 13.2654C4.50087 12.8999 4.46126 12.4978 4.53843 12.1098C4.6156 11.7219 4.80608 11.3655 5.08579 11.0858C5.36549 10.8061 5.72186 10.6156 6.10982 10.5384C6.49778 10.4613 6.89991 10.5009 7.26537 10.6522C7.63082 10.8036 7.94318 11.06 8.16294 11.3889C8.3827 11.7178 8.5 12.1044 8.5 12.5C8.49473 13.027 8.28169 13.5305 7.90719 13.9013C7.53269 14.2721 7.02699 14.48 6.5 14.48V14.5ZM17 18.5C16.7033 18.5 16.4133 18.412 16.1666 18.2472C15.92 18.0824 15.7277 17.8481 15.6142 17.574C15.5006 17.2999 15.4709 16.9983 15.5288 16.7074C15.5867 16.4164 15.7296 16.1491 15.9393 15.9393C16.1491 15.7296 16.4164 15.5867 16.7074 15.5288C16.9983 15.4709 17.2999 15.5006 17.574 15.6142C17.8481 15.7277 18.0824 15.92 18.2472 16.1666C18.412 16.4133 18.5 16.7033 18.5 17C18.4947 17.3943 18.3344 17.7708 18.0537 18.0478C17.7729 18.3247 17.3944 18.48 17 18.48V18.5Z" fill="black"/>
</svg>
